<mxfile host="Electron" agent="Mozilla/5.0 (Macintosh; Intel Mac OS X 10_15_7) AppleWebKit/537.36 (KHTML, like Gecko) draw.io/24.7.17 Chrome/128.0.6613.36 Electron/32.0.1 Safari/537.36" version="24.7.17" pages="2">
  <diagram name="architecture" id="JYRK8FRZFXrLs3yggFOm">
    <mxGraphModel dx="1997" dy="1925" grid="1" gridSize="10" guides="1" tooltips="1" connect="1" arrows="1" fold="1" page="1" pageScale="1" pageWidth="1169" pageHeight="827" math="0" shadow="0">
      <root>
        <mxCell id="0" />
        <mxCell id="1" parent="0" />
        <mxCell id="y6IDSUT-3BoTtGrC2y06-7" value="" style="rounded=0;whiteSpace=wrap;html=1;fillColor=none;strokeColor=#080808;textShadow=0;labelBackgroundColor=none;shadow=1;strokeWidth=2;" parent="1" vertex="1">
          <mxGeometry x="840" y="70" width="350" height="200" as="geometry" />
        </mxCell>
        <mxCell id="y6IDSUT-3BoTtGrC2y06-8" value="" style="rounded=0;whiteSpace=wrap;html=1;fillColor=none;strokeColor=#080808;shadow=1;strokeWidth=2;" parent="1" vertex="1">
          <mxGeometry x="940" y="570" width="400" height="180" as="geometry" />
        </mxCell>
        <mxCell id="y6IDSUT-3BoTtGrC2y06-5" value="House" style="rounded=0;whiteSpace=wrap;html=1;fillColor=none;shadow=1;labelPosition=center;verticalLabelPosition=bottom;align=center;verticalAlign=top;strokeWidth=2;" parent="1" vertex="1">
          <mxGeometry x="120" y="420" width="280" height="300" as="geometry" />
        </mxCell>
        <mxCell id="y6IDSUT-3BoTtGrC2y06-12" value="" style="endArrow=classic;html=1;rounded=0;dashed=1;dashPattern=12 12;exitX=0;exitY=0.5;exitDx=0;exitDy=0;entryX=1;entryY=0.25;entryDx=0;entryDy=0;" parent="1" source="PID1PQfzFZp_Z7pA7Ybl-1" target="PID1PQfzFZp_Z7pA7Ybl-4" edge="1">
          <mxGeometry width="50" height="50" relative="1" as="geometry">
            <mxPoint x="800" y="290" as="sourcePoint" />
            <mxPoint x="450" y="590" as="targetPoint" />
          </mxGeometry>
        </mxCell>
        <mxCell id="y6IDSUT-3BoTtGrC2y06-13" value="" style="endArrow=classic;html=1;rounded=0;dashed=1;dashPattern=12 12;exitX=0;exitY=0.5;exitDx=0;exitDy=0;entryX=1;entryY=0.75;entryDx=0;entryDy=0;" parent="1" source="PID1PQfzFZp_Z7pA7Ybl-3" target="PID1PQfzFZp_Z7pA7Ybl-4" edge="1">
          <mxGeometry width="50" height="50" relative="1" as="geometry">
            <mxPoint x="880" y="700" as="sourcePoint" />
            <mxPoint x="450" y="650" as="targetPoint" />
          </mxGeometry>
        </mxCell>
        <mxCell id="y6IDSUT-3BoTtGrC2y06-17" value="" style="endArrow=classic;html=1;rounded=0;dashed=1;dashPattern=12 12;exitX=0;exitY=0.5;exitDx=0;exitDy=0;" parent="1" source="PID1PQfzFZp_Z7pA7Ybl-4" edge="1">
          <mxGeometry width="50" height="50" relative="1" as="geometry">
            <mxPoint x="268" y="611.72" as="sourcePoint" />
            <mxPoint x="200" y="528.28" as="targetPoint" />
          </mxGeometry>
        </mxCell>
        <mxCell id="y6IDSUT-3BoTtGrC2y06-18" value="" style="endArrow=classic;html=1;rounded=0;dashed=1;dashPattern=12 12;entryX=0.5;entryY=1;entryDx=0;entryDy=0;exitX=0.5;exitY=0;exitDx=0;exitDy=0;" parent="1" source="PID1PQfzFZp_Z7pA7Ybl-8" target="PID1PQfzFZp_Z7pA7Ybl-9" edge="1">
          <mxGeometry width="50" height="50" relative="1" as="geometry">
            <mxPoint x="154.2" y="455.44000000000005" as="sourcePoint" />
            <mxPoint x="10" y="212.9999999999999" as="targetPoint" />
          </mxGeometry>
        </mxCell>
        <mxCell id="y6IDSUT-3BoTtGrC2y06-19" value="Cloud" style="ellipse;shape=cloud;whiteSpace=wrap;html=1;fillColor=none;rotation=0;shadow=1;labelPosition=center;verticalLabelPosition=top;align=center;verticalAlign=bottom;strokeWidth=2;" parent="1" vertex="1">
          <mxGeometry x="-50" y="-28" width="600.17" height="268" as="geometry" />
        </mxCell>
        <mxCell id="y6IDSUT-3BoTtGrC2y06-20" value="Horse Paddock (upper)" style="text;html=1;align=left;verticalAlign=middle;whiteSpace=wrap;rounded=0;" parent="1" vertex="1">
          <mxGeometry x="840" y="40" width="160" height="30" as="geometry" />
        </mxCell>
        <mxCell id="y6IDSUT-3BoTtGrC2y06-21" value="Horse Paddock (lower)" style="text;html=1;align=left;verticalAlign=middle;whiteSpace=wrap;rounded=0;" parent="1" vertex="1">
          <mxGeometry x="940" y="539.41" width="210" height="30" as="geometry" />
        </mxCell>
        <mxCell id="y6IDSUT-3BoTtGrC2y06-31" value="" style="endArrow=classic;html=1;rounded=0;dashed=1;dashPattern=12 12;startArrow=classic;startFill=1;exitX=0;exitY=0.5;exitDx=0;exitDy=0;entryX=1;entryY=0.25;entryDx=0;entryDy=0;" parent="1" source="PID1PQfzFZp_Z7pA7Ybl-11" target="PID1PQfzFZp_Z7pA7Ybl-9" edge="1">
          <mxGeometry width="50" height="50" relative="1" as="geometry">
            <mxPoint x="290" y="112.17" as="sourcePoint" />
            <mxPoint x="220" y="112.17" as="targetPoint" />
          </mxGeometry>
        </mxCell>
        <mxCell id="PID1PQfzFZp_Z7pA7Ybl-1" value="Mikrocontroller" style="shape=image;verticalLabelPosition=bottom;labelBackgroundColor=none;verticalAlign=top;aspect=fixed;imageAspect=0;image=data:image/svg+xml,PHN2ZyB4bWxucz0iaHR0cDovL3d3dy53My5vcmcvMjAwMC9zdmciIHdpZHRoPSIyNCIgaGVpZ2h0PSIyNCIgdmlld0JveD0iMCAwIDI0IDI0IiBmaWxsPSJub25lIiBzdHJva2U9ImN1cnJlbnRDb2xvciIgc3Ryb2tlLXdpZHRoPSIxIiBzdHJva2UtbGluZWNhcD0icm91bmQiIHN0cm9rZS1saW5lam9pbj0icm91bmQiIGNsYXNzPSJsdWNpZGUgbHVjaWRlLW1pY3JvY2hpcCI+PHBhdGggZD0iTTE4IDEyaDIiLz48cGF0aCBkPSJNMTggMTZoMiIvPjxwYXRoIGQ9Ik0xOCAyMGgyIi8+PHBhdGggZD0iTTE4IDRoMiIvPjxwYXRoIGQ9Ik0xOCA4aDIiLz48cGF0aCBkPSJNNCAxMmgyIi8+PHBhdGggZD0iTTQgMTZoMiIvPjxwYXRoIGQ9Ik00IDIwaDIiLz48cGF0aCBkPSJNNCA0aDIiLz48cGF0aCBkPSJNNCA4aDIiLz48cGF0aCBkPSJNOCAyYTIgMiAwIDAgMC0yIDJ2MTZhMiAyIDAgMCAwIDIgMmg4YTIgMiAwIDAgMCAyLTJWNGEyIDIgMCAwIDAtMi0yaC0xLjVjLS4yNzYgMC0uNDk0LjIyNy0uNTYyLjQ5NWEyIDIgMCAwIDEtMy44NzYgMEM5Ljk5NCAyLjIyNyA5Ljc3NiAyIDkuNSAyeiIvPjwvc3ZnPg==;rotation=0;" parent="1" vertex="1">
          <mxGeometry x="870" y="200" width="40" height="40" as="geometry" />
        </mxCell>
        <mxCell id="PID1PQfzFZp_Z7pA7Ybl-3" value="Mikrocontroller" style="shape=image;verticalLabelPosition=bottom;labelBackgroundColor=none;verticalAlign=top;aspect=fixed;imageAspect=0;image=data:image/svg+xml,PHN2ZyB4bWxucz0iaHR0cDovL3d3dy53My5vcmcvMjAwMC9zdmciIHdpZHRoPSIyNCIgaGVpZ2h0PSIyNCIgdmlld0JveD0iMCAwIDI0IDI0IiBmaWxsPSJub25lIiBzdHJva2U9ImN1cnJlbnRDb2xvciIgc3Ryb2tlLXdpZHRoPSIxIiBzdHJva2UtbGluZWNhcD0icm91bmQiIHN0cm9rZS1saW5lam9pbj0icm91bmQiIGNsYXNzPSJsdWNpZGUgbHVjaWRlLW1pY3JvY2hpcCI+PHBhdGggZD0iTTE4IDEyaDIiLz48cGF0aCBkPSJNMTggMTZoMiIvPjxwYXRoIGQ9Ik0xOCAyMGgyIi8+PHBhdGggZD0iTTE4IDRoMiIvPjxwYXRoIGQ9Ik0xOCA4aDIiLz48cGF0aCBkPSJNNCAxMmgyIi8+PHBhdGggZD0iTTQgMTZoMiIvPjxwYXRoIGQ9Ik00IDIwaDIiLz48cGF0aCBkPSJNNCA0aDIiLz48cGF0aCBkPSJNNCA4aDIiLz48cGF0aCBkPSJNOCAyYTIgMiAwIDAgMC0yIDJ2MTZhMiAyIDAgMCAwIDIgMmg4YTIgMiAwIDAgMCAyLTJWNGEyIDIgMCAwIDAtMi0yaC0xLjVjLS4yNzYgMC0uNDk0LjIyNy0uNTYyLjQ5NWEyIDIgMCAwIDEtMy44NzYgMEM5Ljk5NCAyLjIyNyA5Ljc3NiAyIDkuNSAyeiIvPjwvc3ZnPg==;rotation=0;" parent="1" vertex="1">
          <mxGeometry x="970" y="679.5" width="40" height="40" as="geometry" />
        </mxCell>
        <mxCell id="PID1PQfzFZp_Z7pA7Ybl-4" value="Mikrocontroller" style="shape=image;verticalLabelPosition=bottom;labelBackgroundColor=none;verticalAlign=top;aspect=fixed;imageAspect=0;image=data:image/svg+xml,PHN2ZyB4bWxucz0iaHR0cDovL3d3dy53My5vcmcvMjAwMC9zdmciIHdpZHRoPSIyNCIgaGVpZ2h0PSIyNCIgdmlld0JveD0iMCAwIDI0IDI0IiBmaWxsPSJub25lIiBzdHJva2U9ImN1cnJlbnRDb2xvciIgc3Ryb2tlLXdpZHRoPSIxIiBzdHJva2UtbGluZWNhcD0icm91bmQiIHN0cm9rZS1saW5lam9pbj0icm91bmQiIGNsYXNzPSJsdWNpZGUgbHVjaWRlLW1pY3JvY2hpcCI+PHBhdGggZD0iTTE4IDEyaDIiLz48cGF0aCBkPSJNMTggMTZoMiIvPjxwYXRoIGQ9Ik0xOCAyMGgyIi8+PHBhdGggZD0iTTE4IDRoMiIvPjxwYXRoIGQ9Ik0xOCA4aDIiLz48cGF0aCBkPSJNNCAxMmgyIi8+PHBhdGggZD0iTTQgMTZoMiIvPjxwYXRoIGQ9Ik00IDIwaDIiLz48cGF0aCBkPSJNNCA0aDIiLz48cGF0aCBkPSJNNCA4aDIiLz48cGF0aCBkPSJNOCAyYTIgMiAwIDAgMC0yIDJ2MTZhMiAyIDAgMCAwIDIgMmg4YTIgMiAwIDAgMCAyLTJWNGEyIDIgMCAwIDAtMi0yaC0xLjVjLS4yNzYgMC0uNDk0LjIyNy0uNTYyLjQ5NWEyIDIgMCAwIDEtMy44NzYgMEM5Ljk5NCAyLjIyNyA5Ljc3NiAyIDkuNSAyeiIvPjwvc3ZnPg==;rotation=0;" parent="1" vertex="1">
          <mxGeometry x="325.17" y="637.5" width="45" height="45" as="geometry" />
        </mxCell>
        <mxCell id="PID1PQfzFZp_Z7pA7Ybl-5" value="LoRaWAN" style="shape=image;verticalLabelPosition=bottom;labelBackgroundColor=none;verticalAlign=top;aspect=fixed;imageAspect=0;image=data:image/svg+xml,PHN2ZyB4bWxucz0iaHR0cDovL3d3dy53My5vcmcvMjAwMC9zdmciIHdpZHRoPSIyNCIgaGVpZ2h0PSIyNCIgdmlld0JveD0iMCAwIDI0IDI0IiBmaWxsPSJub25lIiBzdHJva2U9ImN1cnJlbnRDb2xvciIgc3Ryb2tlLXdpZHRoPSIxIiBzdHJva2UtbGluZWNhcD0icm91bmQiIHN0cm9rZS1saW5lam9pbj0icm91bmQiIGNsYXNzPSJsdWNpZGUgbHVjaWRlLXJhZGlvIj48cGF0aCBkPSJNNC45IDE5LjFDMSAxNS4yIDEgOC44IDQuOSA0LjkiLz48cGF0aCBkPSJNNy44IDE2LjJjLTIuMy0yLjMtMi4zLTYuMSAwLTguNSIvPjxjaXJjbGUgY3g9IjEyIiBjeT0iMTIiIHI9IjIiLz48cGF0aCBkPSJNMTYuMiA3LjhjMi4zIDIuMyAyLjMgNi4xIDAgOC41Ii8+PHBhdGggZD0iTTE5LjEgNC45QzIzIDguOCAyMyAxNS4xIDE5LjEgMTkiLz48L3N2Zz4=;" parent="1" vertex="1">
          <mxGeometry x="660" y="400" width="41" height="41" as="geometry" />
        </mxCell>
        <mxCell id="PID1PQfzFZp_Z7pA7Ybl-6" value="LoRaWAN" style="shape=image;verticalLabelPosition=bottom;labelBackgroundColor=none;verticalAlign=top;aspect=fixed;imageAspect=0;image=data:image/svg+xml,PHN2ZyB4bWxucz0iaHR0cDovL3d3dy53My5vcmcvMjAwMC9zdmciIHdpZHRoPSIyNCIgaGVpZ2h0PSIyNCIgdmlld0JveD0iMCAwIDI0IDI0IiBmaWxsPSJub25lIiBzdHJva2U9ImN1cnJlbnRDb2xvciIgc3Ryb2tlLXdpZHRoPSIxIiBzdHJva2UtbGluZWNhcD0icm91bmQiIHN0cm9rZS1saW5lam9pbj0icm91bmQiIGNsYXNzPSJsdWNpZGUgbHVjaWRlLXJhZGlvIj48cGF0aCBkPSJNNC45IDE5LjFDMSAxNS4yIDEgOC44IDQuOSA0LjkiLz48cGF0aCBkPSJNNy44IDE2LjJjLTIuMy0yLjMtMi4zLTYuMSAwLTguNSIvPjxjaXJjbGUgY3g9IjEyIiBjeT0iMTIiIHI9IjIiLz48cGF0aCBkPSJNMTYuMiA3LjhjMi4zIDIuMyAyLjMgNi4xIDAgOC41Ii8+PHBhdGggZD0iTTE5LjEgNC45QzIzIDguOCAyMyAxNS4xIDE5LjEgMTkiLz48L3N2Zz4=;" parent="1" vertex="1">
          <mxGeometry x="630" y="682.5" width="41" height="41" as="geometry" />
        </mxCell>
        <mxCell id="PID1PQfzFZp_Z7pA7Ybl-7" value="WiFi" style="shape=image;verticalLabelPosition=bottom;labelBackgroundColor=none;verticalAlign=top;aspect=fixed;imageAspect=0;image=data:image/svg+xml,PHN2ZyB4bWxucz0iaHR0cDovL3d3dy53My5vcmcvMjAwMC9zdmciIHdpZHRoPSIyNCIgaGVpZ2h0PSIyNCIgdmlld0JveD0iMCAwIDI0IDI0IiBmaWxsPSJub25lIiBzdHJva2U9ImN1cnJlbnRDb2xvciIgc3Ryb2tlLXdpZHRoPSIxIiBzdHJva2UtbGluZWNhcD0icm91bmQiIHN0cm9rZS1saW5lam9pbj0icm91bmQiIGNsYXNzPSJsdWNpZGUgbHVjaWRlLXdpZmkiPjxwYXRoIGQ9Ik0xMiAyMGguMDEiLz48cGF0aCBkPSJNMiA4LjgyYTE1IDE1IDAgMCAxIDIwIDAiLz48cGF0aCBkPSJNNSAxMi44NTlhMTAgMTAgMCAwIDEgMTQgMCIvPjxwYXRoIGQ9Ik04LjUgMTYuNDI5YTUgNSAwIDAgMSA3IDAiLz48L3N2Zz4=;" parent="1" vertex="1">
          <mxGeometry x="210" y="581" width="39" height="39" as="geometry" />
        </mxCell>
        <mxCell id="PID1PQfzFZp_Z7pA7Ybl-8" value="Access Point" style="shape=image;verticalLabelPosition=bottom;labelBackgroundColor=none;verticalAlign=top;aspect=fixed;imageAspect=0;image=data:image/svg+xml,PHN2ZyB4bWxucz0iaHR0cDovL3d3dy53My5vcmcvMjAwMC9zdmciIHdpZHRoPSIyNCIgaGVpZ2h0PSIyNCIgdmlld0JveD0iMCAwIDI0IDI0IiBmaWxsPSJub25lIiBzdHJva2U9ImN1cnJlbnRDb2xvciIgc3Ryb2tlLXdpZHRoPSIxIiBzdHJva2UtbGluZWNhcD0icm91bmQiIHN0cm9rZS1saW5lam9pbj0icm91bmQiIGNsYXNzPSJsdWNpZGUgbHVjaWRlLXJvdXRlciI+PHJlY3Qgd2lkdGg9IjIwIiBoZWlnaHQ9IjgiIHg9IjIiIHk9IjE0IiByeD0iMiIvPjxwYXRoIGQ9Ik02LjAxIDE4SDYiLz48cGF0aCBkPSJNMTAuMDEgMThIMTAiLz48cGF0aCBkPSJNMTUgMTB2NCIvPjxwYXRoIGQ9Ik0xNy44NCA3LjE3YTQgNCAwIDAgMC01LjY2IDAiLz48cGF0aCBkPSJNMjAuNjYgNC4zNGE4IDggMCAwIDAtMTEuMzEgMCIvPjwvc3ZnPg==;" parent="1" vertex="1">
          <mxGeometry x="150" y="456" width="44" height="44" as="geometry" />
        </mxCell>
        <mxCell id="PID1PQfzFZp_Z7pA7Ybl-9" value="API Server" style="shape=image;verticalLabelPosition=bottom;labelBackgroundColor=none;verticalAlign=top;aspect=fixed;imageAspect=0;image=data:image/svg+xml,PHN2ZyB4bWxucz0iaHR0cDovL3d3dy53My5vcmcvMjAwMC9zdmciIHdpZHRoPSIyNCIgaGVpZ2h0PSIyNCIgdmlld0JveD0iMCAwIDI0IDI0IiBmaWxsPSJub25lIiBzdHJva2U9ImN1cnJlbnRDb2xvciIgc3Ryb2tlLXdpZHRoPSIxIiBzdHJva2UtbGluZWNhcD0icm91bmQiIHN0cm9rZS1saW5lam9pbj0icm91bmQiIGNsYXNzPSJsdWNpZGUgbHVjaWRlLXNlcnZlciI+PHJlY3Qgd2lkdGg9IjIwIiBoZWlnaHQ9IjgiIHg9IjIiIHk9IjIiIHJ4PSIyIiByeT0iMiIvPjxyZWN0IHdpZHRoPSIyMCIgaGVpZ2h0PSI4IiB4PSIyIiB5PSIxNCIgcng9IjIiIHJ5PSIyIi8+PGxpbmUgeDE9IjYiIHgyPSI2LjAxIiB5MT0iNiIgeTI9IjYiLz48bGluZSB4MT0iNiIgeDI9IjYuMDEiIHkxPSIxOCIgeTI9IjE4Ii8+PC9zdmc+;" parent="1" vertex="1">
          <mxGeometry x="170" y="85.67" width="41" height="41" as="geometry" />
        </mxCell>
        <mxCell id="PID1PQfzFZp_Z7pA7Ybl-10" value="Database&#xa;Server" style="shape=image;verticalLabelPosition=bottom;labelBackgroundColor=none;verticalAlign=top;aspect=fixed;imageAspect=0;image=data:image/svg+xml,PHN2ZyB4bWxucz0iaHR0cDovL3d3dy53My5vcmcvMjAwMC9zdmciIHdpZHRoPSIyNCIgaGVpZ2h0PSIyNCIgdmlld0JveD0iMCAwIDI0IDI0IiBmaWxsPSJub25lIiBzdHJva2U9ImN1cnJlbnRDb2xvciIgc3Ryb2tlLXdpZHRoPSIxIiBzdHJva2UtbGluZWNhcD0icm91bmQiIHN0cm9rZS1saW5lam9pbj0icm91bmQiIGNsYXNzPSJsdWNpZGUgbHVjaWRlLWRhdGFiYXNlIj48ZWxsaXBzZSBjeD0iMTIiIGN5PSI1IiByeD0iOSIgcnk9IjMiLz48cGF0aCBkPSJNMyA1VjE5QTkgMyAwIDAgMCAyMSAxOVY1Ii8+PHBhdGggZD0iTTMgMTJBOSAzIDAgMCAwIDIxIDEyIi8+PC9zdmc+;" parent="1" vertex="1">
          <mxGeometry x="60" y="87.5" width="37" height="37" as="geometry" />
        </mxCell>
        <mxCell id="PID1PQfzFZp_Z7pA7Ybl-11" value="Web App" style="shape=image;verticalLabelPosition=bottom;labelBackgroundColor=none;verticalAlign=top;aspect=fixed;imageAspect=0;image=data:image/svg+xml,PHN2ZyB4bWxucz0iaHR0cDovL3d3dy53My5vcmcvMjAwMC9zdmciIHdpZHRoPSIyNCIgaGVpZ2h0PSIyNCIgdmlld0JveD0iMCAwIDI0IDI0IiBmaWxsPSJub25lIiBzdHJva2U9ImN1cnJlbnRDb2xvciIgc3Ryb2tlLXdpZHRoPSIxIiBzdHJva2UtbGluZWNhcD0icm91bmQiIHN0cm9rZS1saW5lam9pbj0icm91bmQiIGNsYXNzPSJsdWNpZGUgbHVjaWRlLW1vbml0b3IiPjxyZWN0IHdpZHRoPSIyMCIgaGVpZ2h0PSIxNCIgeD0iMiIgeT0iMyIgcng9IjIiLz48bGluZSB4MT0iOCIgeDI9IjE2IiB5MT0iMjEiIHkyPSIyMSIvPjxsaW5lIHgxPSIxMiIgeDI9IjEyIiB5MT0iMTciIHkyPSIyMSIvPjwvc3ZnPg==;" parent="1" vertex="1">
          <mxGeometry x="360" y="32.17" width="42" height="42" as="geometry" />
        </mxCell>
        <mxCell id="PID1PQfzFZp_Z7pA7Ybl-12" value="Mobile App" style="shape=image;verticalLabelPosition=bottom;labelBackgroundColor=none;verticalAlign=top;aspect=fixed;imageAspect=0;image=data:image/svg+xml,PHN2ZyB4bWxucz0iaHR0cDovL3d3dy53My5vcmcvMjAwMC9zdmciIHdpZHRoPSIyNCIgaGVpZ2h0PSIyNCIgdmlld0JveD0iMCAwIDI0IDI0IiBmaWxsPSJub25lIiBzdHJva2U9ImN1cnJlbnRDb2xvciIgc3Ryb2tlLXdpZHRoPSIxIiBzdHJva2UtbGluZWNhcD0icm91bmQiIHN0cm9rZS1saW5lam9pbj0icm91bmQiIGNsYXNzPSJsdWNpZGUgbHVjaWRlLXNtYXJ0cGhvbmUiPjxyZWN0IHdpZHRoPSIxNCIgaGVpZ2h0PSIyMCIgeD0iNSIgeT0iMiIgcng9IjIiIHJ5PSIyIi8+PHBhdGggZD0iTTEyIDE4aC4wMSIvPjwvc3ZnPg==;" parent="1" vertex="1">
          <mxGeometry x="360" y="126.67" width="42" height="42" as="geometry" />
        </mxCell>
        <mxCell id="PID1PQfzFZp_Z7pA7Ybl-14" value="" style="endArrow=classic;html=1;rounded=0;dashed=1;dashPattern=12 12;startArrow=classic;startFill=1;exitX=0;exitY=0.5;exitDx=0;exitDy=0;entryX=1;entryY=0.75;entryDx=0;entryDy=0;" parent="1" source="PID1PQfzFZp_Z7pA7Ybl-12" target="PID1PQfzFZp_Z7pA7Ybl-9" edge="1">
          <mxGeometry width="50" height="50" relative="1" as="geometry">
            <mxPoint x="370" y="63.17" as="sourcePoint" />
            <mxPoint x="221" y="116.17" as="targetPoint" />
          </mxGeometry>
        </mxCell>
        <mxCell id="PID1PQfzFZp_Z7pA7Ybl-15" value="" style="endArrow=classic;html=1;rounded=0;dashed=1;dashPattern=12 12;startArrow=classic;startFill=1;exitX=0;exitY=0.5;exitDx=0;exitDy=0;entryX=1;entryY=0.5;entryDx=0;entryDy=0;" parent="1" source="PID1PQfzFZp_Z7pA7Ybl-9" target="PID1PQfzFZp_Z7pA7Ybl-10" edge="1">
          <mxGeometry width="50" height="50" relative="1" as="geometry">
            <mxPoint x="370" y="63.17" as="sourcePoint" />
            <mxPoint x="221" y="106.17" as="targetPoint" />
          </mxGeometry>
        </mxCell>
        <mxCell id="PID1PQfzFZp_Z7pA7Ybl-16" value="" style="endArrow=none;html=1;rounded=0;exitX=0;exitY=0;exitDx=0;exitDy=0;shadow=1;strokeWidth=2;" parent="1" source="y6IDSUT-3BoTtGrC2y06-5" edge="1">
          <mxGeometry width="50" height="50" relative="1" as="geometry">
            <mxPoint x="240" y="400" as="sourcePoint" />
            <mxPoint x="260" y="320" as="targetPoint" />
          </mxGeometry>
        </mxCell>
        <mxCell id="PID1PQfzFZp_Z7pA7Ybl-17" value="" style="endArrow=none;html=1;rounded=0;exitX=1;exitY=0;exitDx=0;exitDy=0;shadow=1;strokeWidth=2;" parent="1" source="y6IDSUT-3BoTtGrC2y06-5" edge="1">
          <mxGeometry width="50" height="50" relative="1" as="geometry">
            <mxPoint x="130" y="430" as="sourcePoint" />
            <mxPoint x="260" y="320" as="targetPoint" />
          </mxGeometry>
        </mxCell>
      </root>
    </mxGraphModel>
  </diagram>
  <diagram id="OM5CmVfzAPzld9UvYdWI" name="database">
    <mxGraphModel dx="402" dy="306" grid="1" gridSize="10" guides="1" tooltips="1" connect="1" arrows="1" fold="1" page="1" pageScale="1" pageWidth="1169" pageHeight="827" math="0" shadow="0">
      <root>
        <mxCell id="0" />
        <mxCell id="1" parent="0" />
        <mxCell id="tiwQBZec2q2PL2vRw0Oh-14" value="Paddock" style="shape=table;startSize=30;container=1;collapsible=1;childLayout=tableLayout;fixedRows=1;rowLines=0;fontStyle=1;align=center;resizeLast=1;html=1;" parent="1" vertex="1">
          <mxGeometry x="40" y="240" width="200" height="180" as="geometry" />
        </mxCell>
        <mxCell id="tiwQBZec2q2PL2vRw0Oh-15" value="" style="shape=tableRow;horizontal=0;startSize=0;swimlaneHead=0;swimlaneBody=0;fillColor=none;collapsible=0;dropTarget=0;points=[[0,0.5],[1,0.5]];portConstraint=eastwest;top=0;left=0;right=0;bottom=1;" parent="tiwQBZec2q2PL2vRw0Oh-14" vertex="1">
          <mxGeometry y="30" width="200" height="30" as="geometry" />
        </mxCell>
        <mxCell id="tiwQBZec2q2PL2vRw0Oh-16" value="PK" style="shape=partialRectangle;connectable=0;fillColor=none;top=0;left=0;bottom=0;right=0;fontStyle=1;overflow=hidden;whiteSpace=wrap;html=1;" parent="tiwQBZec2q2PL2vRw0Oh-15" vertex="1">
          <mxGeometry width="30" height="30" as="geometry">
            <mxRectangle width="30" height="30" as="alternateBounds" />
          </mxGeometry>
        </mxCell>
        <mxCell id="tiwQBZec2q2PL2vRw0Oh-17" value="id" style="shape=partialRectangle;connectable=0;fillColor=none;top=0;left=0;bottom=0;right=0;align=left;spacingLeft=6;fontStyle=5;overflow=hidden;whiteSpace=wrap;html=1;" parent="tiwQBZec2q2PL2vRw0Oh-15" vertex="1">
          <mxGeometry x="30" width="170" height="30" as="geometry">
            <mxRectangle width="170" height="30" as="alternateBounds" />
          </mxGeometry>
        </mxCell>
        <mxCell id="tiwQBZec2q2PL2vRw0Oh-18" value="" style="shape=tableRow;horizontal=0;startSize=0;swimlaneHead=0;swimlaneBody=0;fillColor=none;collapsible=0;dropTarget=0;points=[[0,0.5],[1,0.5]];portConstraint=eastwest;top=0;left=0;right=0;bottom=0;" parent="tiwQBZec2q2PL2vRw0Oh-14" vertex="1">
          <mxGeometry y="60" width="200" height="30" as="geometry" />
        </mxCell>
        <mxCell id="tiwQBZec2q2PL2vRw0Oh-19" value="" style="shape=partialRectangle;connectable=0;fillColor=none;top=0;left=0;bottom=0;right=0;editable=1;overflow=hidden;whiteSpace=wrap;html=1;" parent="tiwQBZec2q2PL2vRw0Oh-18" vertex="1">
          <mxGeometry width="30" height="30" as="geometry">
            <mxRectangle width="30" height="30" as="alternateBounds" />
          </mxGeometry>
        </mxCell>
        <mxCell id="tiwQBZec2q2PL2vRw0Oh-20" value="name" style="shape=partialRectangle;connectable=0;fillColor=none;top=0;left=0;bottom=0;right=0;align=left;spacingLeft=6;overflow=hidden;whiteSpace=wrap;html=1;" parent="tiwQBZec2q2PL2vRw0Oh-18" vertex="1">
          <mxGeometry x="30" width="170" height="30" as="geometry">
            <mxRectangle width="170" height="30" as="alternateBounds" />
          </mxGeometry>
        </mxCell>
        <mxCell id="tiwQBZec2q2PL2vRw0Oh-21" value="" style="shape=tableRow;horizontal=0;startSize=0;swimlaneHead=0;swimlaneBody=0;fillColor=none;collapsible=0;dropTarget=0;points=[[0,0.5],[1,0.5]];portConstraint=eastwest;top=0;left=0;right=0;bottom=0;" parent="tiwQBZec2q2PL2vRw0Oh-14" vertex="1">
          <mxGeometry y="90" width="200" height="30" as="geometry" />
        </mxCell>
        <mxCell id="tiwQBZec2q2PL2vRw0Oh-22" value="" style="shape=partialRectangle;connectable=0;fillColor=none;top=0;left=0;bottom=0;right=0;editable=1;overflow=hidden;whiteSpace=wrap;html=1;" parent="tiwQBZec2q2PL2vRw0Oh-21" vertex="1">
          <mxGeometry width="30" height="30" as="geometry">
            <mxRectangle width="30" height="30" as="alternateBounds" />
          </mxGeometry>
        </mxCell>
        <mxCell id="tiwQBZec2q2PL2vRw0Oh-23" value="description" style="shape=partialRectangle;connectable=0;fillColor=none;top=0;left=0;bottom=0;right=0;align=left;spacingLeft=6;overflow=hidden;whiteSpace=wrap;html=1;" parent="tiwQBZec2q2PL2vRw0Oh-21" vertex="1">
          <mxGeometry x="30" width="170" height="30" as="geometry">
            <mxRectangle width="170" height="30" as="alternateBounds" />
          </mxGeometry>
        </mxCell>
        <mxCell id="tiwQBZec2q2PL2vRw0Oh-24" value="" style="shape=tableRow;horizontal=0;startSize=0;swimlaneHead=0;swimlaneBody=0;fillColor=none;collapsible=0;dropTarget=0;points=[[0,0.5],[1,0.5]];portConstraint=eastwest;top=0;left=0;right=0;bottom=0;" parent="tiwQBZec2q2PL2vRw0Oh-14" vertex="1">
          <mxGeometry y="120" width="200" height="30" as="geometry" />
        </mxCell>
        <mxCell id="tiwQBZec2q2PL2vRw0Oh-25" value="" style="shape=partialRectangle;connectable=0;fillColor=none;top=0;left=0;bottom=0;right=0;editable=1;overflow=hidden;whiteSpace=wrap;html=1;" parent="tiwQBZec2q2PL2vRw0Oh-24" vertex="1">
          <mxGeometry width="30" height="30" as="geometry">
            <mxRectangle width="30" height="30" as="alternateBounds" />
          </mxGeometry>
        </mxCell>
        <mxCell id="tiwQBZec2q2PL2vRw0Oh-26" value="createdAt" style="shape=partialRectangle;connectable=0;fillColor=none;top=0;left=0;bottom=0;right=0;align=left;spacingLeft=6;overflow=hidden;whiteSpace=wrap;html=1;" parent="tiwQBZec2q2PL2vRw0Oh-24" vertex="1">
          <mxGeometry x="30" width="170" height="30" as="geometry">
            <mxRectangle width="170" height="30" as="alternateBounds" />
          </mxGeometry>
        </mxCell>
        <mxCell id="tiwQBZec2q2PL2vRw0Oh-33" style="shape=tableRow;horizontal=0;startSize=0;swimlaneHead=0;swimlaneBody=0;fillColor=none;collapsible=0;dropTarget=0;points=[[0,0.5],[1,0.5]];portConstraint=eastwest;top=0;left=0;right=0;bottom=0;" parent="tiwQBZec2q2PL2vRw0Oh-14" vertex="1">
          <mxGeometry y="150" width="200" height="30" as="geometry" />
        </mxCell>
        <mxCell id="tiwQBZec2q2PL2vRw0Oh-34" style="shape=partialRectangle;connectable=0;fillColor=none;top=0;left=0;bottom=0;right=0;editable=1;overflow=hidden;whiteSpace=wrap;html=1;" parent="tiwQBZec2q2PL2vRw0Oh-33" vertex="1">
          <mxGeometry width="30" height="30" as="geometry">
            <mxRectangle width="30" height="30" as="alternateBounds" />
          </mxGeometry>
        </mxCell>
        <mxCell id="tiwQBZec2q2PL2vRw0Oh-35" value="updatedAt" style="shape=partialRectangle;connectable=0;fillColor=none;top=0;left=0;bottom=0;right=0;align=left;spacingLeft=6;overflow=hidden;whiteSpace=wrap;html=1;" parent="tiwQBZec2q2PL2vRw0Oh-33" vertex="1">
          <mxGeometry x="30" width="170" height="30" as="geometry">
            <mxRectangle width="170" height="30" as="alternateBounds" />
          </mxGeometry>
        </mxCell>
        <mxCell id="tiwQBZec2q2PL2vRw0Oh-36" value="Microcontroller" style="shape=table;startSize=30;container=1;collapsible=1;childLayout=tableLayout;fixedRows=1;rowLines=0;fontStyle=1;align=center;resizeLast=1;html=1;" parent="1" vertex="1">
          <mxGeometry x="320" y="240" width="200" height="360" as="geometry" />
        </mxCell>
        <mxCell id="tiwQBZec2q2PL2vRw0Oh-37" value="" style="shape=tableRow;horizontal=0;startSize=0;swimlaneHead=0;swimlaneBody=0;fillColor=none;collapsible=0;dropTarget=0;points=[[0,0.5],[1,0.5]];portConstraint=eastwest;top=0;left=0;right=0;bottom=1;" parent="tiwQBZec2q2PL2vRw0Oh-36" vertex="1">
          <mxGeometry y="30" width="200" height="30" as="geometry" />
        </mxCell>
        <mxCell id="tiwQBZec2q2PL2vRw0Oh-38" value="PK" style="shape=partialRectangle;connectable=0;fillColor=none;top=0;left=0;bottom=0;right=0;fontStyle=1;overflow=hidden;whiteSpace=wrap;html=1;" parent="tiwQBZec2q2PL2vRw0Oh-37" vertex="1">
          <mxGeometry width="30" height="30" as="geometry">
            <mxRectangle width="30" height="30" as="alternateBounds" />
          </mxGeometry>
        </mxCell>
        <mxCell id="tiwQBZec2q2PL2vRw0Oh-39" value="id" style="shape=partialRectangle;connectable=0;fillColor=none;top=0;left=0;bottom=0;right=0;align=left;spacingLeft=6;fontStyle=5;overflow=hidden;whiteSpace=wrap;html=1;" parent="tiwQBZec2q2PL2vRw0Oh-37" vertex="1">
          <mxGeometry x="30" width="170" height="30" as="geometry">
            <mxRectangle width="170" height="30" as="alternateBounds" />
          </mxGeometry>
        </mxCell>
        <mxCell id="tiwQBZec2q2PL2vRw0Oh-70" style="shape=tableRow;horizontal=0;startSize=0;swimlaneHead=0;swimlaneBody=0;fillColor=none;collapsible=0;dropTarget=0;points=[[0,0.5],[1,0.5]];portConstraint=eastwest;top=0;left=0;right=0;bottom=0;" parent="tiwQBZec2q2PL2vRw0Oh-36" vertex="1">
          <mxGeometry y="60" width="200" height="30" as="geometry" />
        </mxCell>
        <mxCell id="tiwQBZec2q2PL2vRw0Oh-71" value="FK" style="shape=partialRectangle;connectable=0;fillColor=none;top=0;left=0;bottom=0;right=0;editable=1;overflow=hidden;whiteSpace=wrap;html=1;" parent="tiwQBZec2q2PL2vRw0Oh-70" vertex="1">
          <mxGeometry width="30" height="30" as="geometry">
            <mxRectangle width="30" height="30" as="alternateBounds" />
          </mxGeometry>
        </mxCell>
        <mxCell id="tiwQBZec2q2PL2vRw0Oh-72" value="paddockId" style="shape=partialRectangle;connectable=0;fillColor=none;top=0;left=0;bottom=0;right=0;align=left;spacingLeft=6;overflow=hidden;whiteSpace=wrap;html=1;" parent="tiwQBZec2q2PL2vRw0Oh-70" vertex="1">
          <mxGeometry x="30" width="170" height="30" as="geometry">
            <mxRectangle width="170" height="30" as="alternateBounds" />
          </mxGeometry>
        </mxCell>
        <mxCell id="tiwQBZec2q2PL2vRw0Oh-40" value="" style="shape=tableRow;horizontal=0;startSize=0;swimlaneHead=0;swimlaneBody=0;fillColor=none;collapsible=0;dropTarget=0;points=[[0,0.5],[1,0.5]];portConstraint=eastwest;top=0;left=0;right=0;bottom=0;" parent="tiwQBZec2q2PL2vRw0Oh-36" vertex="1">
          <mxGeometry y="90" width="200" height="30" as="geometry" />
        </mxCell>
        <mxCell id="tiwQBZec2q2PL2vRw0Oh-41" value="" style="shape=partialRectangle;connectable=0;fillColor=none;top=0;left=0;bottom=0;right=0;editable=1;overflow=hidden;whiteSpace=wrap;html=1;" parent="tiwQBZec2q2PL2vRw0Oh-40" vertex="1">
          <mxGeometry width="30" height="30" as="geometry">
            <mxRectangle width="30" height="30" as="alternateBounds" />
          </mxGeometry>
        </mxCell>
        <mxCell id="tiwQBZec2q2PL2vRw0Oh-42" value="name" style="shape=partialRectangle;connectable=0;fillColor=none;top=0;left=0;bottom=0;right=0;align=left;spacingLeft=6;overflow=hidden;whiteSpace=wrap;html=1;" parent="tiwQBZec2q2PL2vRw0Oh-40" vertex="1">
          <mxGeometry x="30" width="170" height="30" as="geometry">
            <mxRectangle width="170" height="30" as="alternateBounds" />
          </mxGeometry>
        </mxCell>
        <mxCell id="tiwQBZec2q2PL2vRw0Oh-43" value="" style="shape=tableRow;horizontal=0;startSize=0;swimlaneHead=0;swimlaneBody=0;fillColor=none;collapsible=0;dropTarget=0;points=[[0,0.5],[1,0.5]];portConstraint=eastwest;top=0;left=0;right=0;bottom=0;" parent="tiwQBZec2q2PL2vRw0Oh-36" vertex="1">
          <mxGeometry y="120" width="200" height="30" as="geometry" />
        </mxCell>
        <mxCell id="tiwQBZec2q2PL2vRw0Oh-44" value="" style="shape=partialRectangle;connectable=0;fillColor=none;top=0;left=0;bottom=0;right=0;editable=1;overflow=hidden;whiteSpace=wrap;html=1;" parent="tiwQBZec2q2PL2vRw0Oh-43" vertex="1">
          <mxGeometry width="30" height="30" as="geometry">
            <mxRectangle width="30" height="30" as="alternateBounds" />
          </mxGeometry>
        </mxCell>
        <mxCell id="tiwQBZec2q2PL2vRw0Oh-45" value="location" style="shape=partialRectangle;connectable=0;fillColor=none;top=0;left=0;bottom=0;right=0;align=left;spacingLeft=6;overflow=hidden;whiteSpace=wrap;html=1;" parent="tiwQBZec2q2PL2vRw0Oh-43" vertex="1">
          <mxGeometry x="30" width="170" height="30" as="geometry">
            <mxRectangle width="170" height="30" as="alternateBounds" />
          </mxGeometry>
        </mxCell>
        <mxCell id="tiwQBZec2q2PL2vRw0Oh-46" value="" style="shape=tableRow;horizontal=0;startSize=0;swimlaneHead=0;swimlaneBody=0;fillColor=none;collapsible=0;dropTarget=0;points=[[0,0.5],[1,0.5]];portConstraint=eastwest;top=0;left=0;right=0;bottom=0;" parent="tiwQBZec2q2PL2vRw0Oh-36" vertex="1">
          <mxGeometry y="150" width="200" height="30" as="geometry" />
        </mxCell>
        <mxCell id="tiwQBZec2q2PL2vRw0Oh-47" value="" style="shape=partialRectangle;connectable=0;fillColor=none;top=0;left=0;bottom=0;right=0;editable=1;overflow=hidden;whiteSpace=wrap;html=1;" parent="tiwQBZec2q2PL2vRw0Oh-46" vertex="1">
          <mxGeometry width="30" height="30" as="geometry">
            <mxRectangle width="30" height="30" as="alternateBounds" />
          </mxGeometry>
        </mxCell>
        <mxCell id="tiwQBZec2q2PL2vRw0Oh-48" value="manufacturer" style="shape=partialRectangle;connectable=0;fillColor=none;top=0;left=0;bottom=0;right=0;align=left;spacingLeft=6;overflow=hidden;whiteSpace=wrap;html=1;" parent="tiwQBZec2q2PL2vRw0Oh-46" vertex="1">
          <mxGeometry x="30" width="170" height="30" as="geometry">
            <mxRectangle width="170" height="30" as="alternateBounds" />
          </mxGeometry>
        </mxCell>
        <mxCell id="tiwQBZec2q2PL2vRw0Oh-55" style="shape=tableRow;horizontal=0;startSize=0;swimlaneHead=0;swimlaneBody=0;fillColor=none;collapsible=0;dropTarget=0;points=[[0,0.5],[1,0.5]];portConstraint=eastwest;top=0;left=0;right=0;bottom=0;" parent="tiwQBZec2q2PL2vRw0Oh-36" vertex="1">
          <mxGeometry y="180" width="200" height="30" as="geometry" />
        </mxCell>
        <mxCell id="tiwQBZec2q2PL2vRw0Oh-56" style="shape=partialRectangle;connectable=0;fillColor=none;top=0;left=0;bottom=0;right=0;editable=1;overflow=hidden;whiteSpace=wrap;html=1;" parent="tiwQBZec2q2PL2vRw0Oh-55" vertex="1">
          <mxGeometry width="30" height="30" as="geometry">
            <mxRectangle width="30" height="30" as="alternateBounds" />
          </mxGeometry>
        </mxCell>
        <mxCell id="tiwQBZec2q2PL2vRw0Oh-57" value="masterChip" style="shape=partialRectangle;connectable=0;fillColor=none;top=0;left=0;bottom=0;right=0;align=left;spacingLeft=6;overflow=hidden;whiteSpace=wrap;html=1;" parent="tiwQBZec2q2PL2vRw0Oh-55" vertex="1">
          <mxGeometry x="30" width="170" height="30" as="geometry">
            <mxRectangle width="170" height="30" as="alternateBounds" />
          </mxGeometry>
        </mxCell>
        <mxCell id="tiwQBZec2q2PL2vRw0Oh-61" style="shape=tableRow;horizontal=0;startSize=0;swimlaneHead=0;swimlaneBody=0;fillColor=none;collapsible=0;dropTarget=0;points=[[0,0.5],[1,0.5]];portConstraint=eastwest;top=0;left=0;right=0;bottom=0;" parent="tiwQBZec2q2PL2vRw0Oh-36" vertex="1">
          <mxGeometry y="210" width="200" height="30" as="geometry" />
        </mxCell>
        <mxCell id="tiwQBZec2q2PL2vRw0Oh-62" style="shape=partialRectangle;connectable=0;fillColor=none;top=0;left=0;bottom=0;right=0;editable=1;overflow=hidden;whiteSpace=wrap;html=1;" parent="tiwQBZec2q2PL2vRw0Oh-61" vertex="1">
          <mxGeometry width="30" height="30" as="geometry">
            <mxRectangle width="30" height="30" as="alternateBounds" />
          </mxGeometry>
        </mxCell>
        <mxCell id="tiwQBZec2q2PL2vRw0Oh-63" value="loraChip" style="shape=partialRectangle;connectable=0;fillColor=none;top=0;left=0;bottom=0;right=0;align=left;spacingLeft=6;overflow=hidden;whiteSpace=wrap;html=1;" parent="tiwQBZec2q2PL2vRw0Oh-61" vertex="1">
          <mxGeometry x="30" width="170" height="30" as="geometry">
            <mxRectangle width="170" height="30" as="alternateBounds" />
          </mxGeometry>
        </mxCell>
        <mxCell id="tiwQBZec2q2PL2vRw0Oh-58" style="shape=tableRow;horizontal=0;startSize=0;swimlaneHead=0;swimlaneBody=0;fillColor=none;collapsible=0;dropTarget=0;points=[[0,0.5],[1,0.5]];portConstraint=eastwest;top=0;left=0;right=0;bottom=0;" parent="tiwQBZec2q2PL2vRw0Oh-36" vertex="1">
          <mxGeometry y="240" width="200" height="30" as="geometry" />
        </mxCell>
        <mxCell id="tiwQBZec2q2PL2vRw0Oh-59" style="shape=partialRectangle;connectable=0;fillColor=none;top=0;left=0;bottom=0;right=0;editable=1;overflow=hidden;whiteSpace=wrap;html=1;" parent="tiwQBZec2q2PL2vRw0Oh-58" vertex="1">
          <mxGeometry width="30" height="30" as="geometry">
            <mxRectangle width="30" height="30" as="alternateBounds" />
          </mxGeometry>
        </mxCell>
        <mxCell id="tiwQBZec2q2PL2vRw0Oh-60" value="serialNumber" style="shape=partialRectangle;connectable=0;fillColor=none;top=0;left=0;bottom=0;right=0;align=left;spacingLeft=6;overflow=hidden;whiteSpace=wrap;html=1;" parent="tiwQBZec2q2PL2vRw0Oh-58" vertex="1">
          <mxGeometry x="30" width="170" height="30" as="geometry">
            <mxRectangle width="170" height="30" as="alternateBounds" />
          </mxGeometry>
        </mxCell>
        <mxCell id="tiwQBZec2q2PL2vRw0Oh-64" style="shape=tableRow;horizontal=0;startSize=0;swimlaneHead=0;swimlaneBody=0;fillColor=none;collapsible=0;dropTarget=0;points=[[0,0.5],[1,0.5]];portConstraint=eastwest;top=0;left=0;right=0;bottom=0;" parent="tiwQBZec2q2PL2vRw0Oh-36" vertex="1">
          <mxGeometry y="270" width="200" height="30" as="geometry" />
        </mxCell>
        <mxCell id="tiwQBZec2q2PL2vRw0Oh-65" style="shape=partialRectangle;connectable=0;fillColor=none;top=0;left=0;bottom=0;right=0;editable=1;overflow=hidden;whiteSpace=wrap;html=1;" parent="tiwQBZec2q2PL2vRw0Oh-64" vertex="1">
          <mxGeometry width="30" height="30" as="geometry">
            <mxRectangle width="30" height="30" as="alternateBounds" />
          </mxGeometry>
        </mxCell>
        <mxCell id="tiwQBZec2q2PL2vRw0Oh-66" value="macAdress" style="shape=partialRectangle;connectable=0;fillColor=none;top=0;left=0;bottom=0;right=0;align=left;spacingLeft=6;overflow=hidden;whiteSpace=wrap;html=1;" parent="tiwQBZec2q2PL2vRw0Oh-64" vertex="1">
          <mxGeometry x="30" width="170" height="30" as="geometry">
            <mxRectangle width="170" height="30" as="alternateBounds" />
          </mxGeometry>
        </mxCell>
        <mxCell id="tiwQBZec2q2PL2vRw0Oh-52" style="shape=tableRow;horizontal=0;startSize=0;swimlaneHead=0;swimlaneBody=0;fillColor=none;collapsible=0;dropTarget=0;points=[[0,0.5],[1,0.5]];portConstraint=eastwest;top=0;left=0;right=0;bottom=0;" parent="tiwQBZec2q2PL2vRw0Oh-36" vertex="1">
          <mxGeometry y="300" width="200" height="30" as="geometry" />
        </mxCell>
        <mxCell id="tiwQBZec2q2PL2vRw0Oh-53" style="shape=partialRectangle;connectable=0;fillColor=none;top=0;left=0;bottom=0;right=0;editable=1;overflow=hidden;whiteSpace=wrap;html=1;" parent="tiwQBZec2q2PL2vRw0Oh-52" vertex="1">
          <mxGeometry width="30" height="30" as="geometry">
            <mxRectangle width="30" height="30" as="alternateBounds" />
          </mxGeometry>
        </mxCell>
        <mxCell id="tiwQBZec2q2PL2vRw0Oh-54" value="createdAt" style="shape=partialRectangle;connectable=0;fillColor=none;top=0;left=0;bottom=0;right=0;align=left;spacingLeft=6;overflow=hidden;whiteSpace=wrap;html=1;" parent="tiwQBZec2q2PL2vRw0Oh-52" vertex="1">
          <mxGeometry x="30" width="170" height="30" as="geometry">
            <mxRectangle width="170" height="30" as="alternateBounds" />
          </mxGeometry>
        </mxCell>
        <mxCell id="tiwQBZec2q2PL2vRw0Oh-49" style="shape=tableRow;horizontal=0;startSize=0;swimlaneHead=0;swimlaneBody=0;fillColor=none;collapsible=0;dropTarget=0;points=[[0,0.5],[1,0.5]];portConstraint=eastwest;top=0;left=0;right=0;bottom=0;" parent="tiwQBZec2q2PL2vRw0Oh-36" vertex="1">
          <mxGeometry y="330" width="200" height="30" as="geometry" />
        </mxCell>
        <mxCell id="tiwQBZec2q2PL2vRw0Oh-50" style="shape=partialRectangle;connectable=0;fillColor=none;top=0;left=0;bottom=0;right=0;editable=1;overflow=hidden;whiteSpace=wrap;html=1;" parent="tiwQBZec2q2PL2vRw0Oh-49" vertex="1">
          <mxGeometry width="30" height="30" as="geometry">
            <mxRectangle width="30" height="30" as="alternateBounds" />
          </mxGeometry>
        </mxCell>
        <mxCell id="tiwQBZec2q2PL2vRw0Oh-51" value="updatedAt" style="shape=partialRectangle;connectable=0;fillColor=none;top=0;left=0;bottom=0;right=0;align=left;spacingLeft=6;overflow=hidden;whiteSpace=wrap;html=1;" parent="tiwQBZec2q2PL2vRw0Oh-49" vertex="1">
          <mxGeometry x="30" width="170" height="30" as="geometry">
            <mxRectangle width="170" height="30" as="alternateBounds" />
          </mxGeometry>
        </mxCell>
        <mxCell id="tiwQBZec2q2PL2vRw0Oh-73" value="Sensor" style="shape=table;startSize=30;container=1;collapsible=1;childLayout=tableLayout;fixedRows=1;rowLines=0;fontStyle=1;align=center;resizeLast=1;html=1;" parent="1" vertex="1">
          <mxGeometry x="600" y="240" width="200" height="240" as="geometry" />
        </mxCell>
        <mxCell id="tiwQBZec2q2PL2vRw0Oh-74" value="" style="shape=tableRow;horizontal=0;startSize=0;swimlaneHead=0;swimlaneBody=0;fillColor=none;collapsible=0;dropTarget=0;points=[[0,0.5],[1,0.5]];portConstraint=eastwest;top=0;left=0;right=0;bottom=1;" parent="tiwQBZec2q2PL2vRw0Oh-73" vertex="1">
          <mxGeometry y="30" width="200" height="30" as="geometry" />
        </mxCell>
        <mxCell id="tiwQBZec2q2PL2vRw0Oh-75" value="PK" style="shape=partialRectangle;connectable=0;fillColor=none;top=0;left=0;bottom=0;right=0;fontStyle=1;overflow=hidden;whiteSpace=wrap;html=1;" parent="tiwQBZec2q2PL2vRw0Oh-74" vertex="1">
          <mxGeometry width="30" height="30" as="geometry">
            <mxRectangle width="30" height="30" as="alternateBounds" />
          </mxGeometry>
        </mxCell>
        <mxCell id="tiwQBZec2q2PL2vRw0Oh-76" value="id" style="shape=partialRectangle;connectable=0;fillColor=none;top=0;left=0;bottom=0;right=0;align=left;spacingLeft=6;fontStyle=5;overflow=hidden;whiteSpace=wrap;html=1;" parent="tiwQBZec2q2PL2vRw0Oh-74" vertex="1">
          <mxGeometry x="30" width="170" height="30" as="geometry">
            <mxRectangle width="170" height="30" as="alternateBounds" />
          </mxGeometry>
        </mxCell>
        <mxCell id="tiwQBZec2q2PL2vRw0Oh-77" style="shape=tableRow;horizontal=0;startSize=0;swimlaneHead=0;swimlaneBody=0;fillColor=none;collapsible=0;dropTarget=0;points=[[0,0.5],[1,0.5]];portConstraint=eastwest;top=0;left=0;right=0;bottom=0;" parent="tiwQBZec2q2PL2vRw0Oh-73" vertex="1">
          <mxGeometry y="60" width="200" height="30" as="geometry" />
        </mxCell>
        <mxCell id="tiwQBZec2q2PL2vRw0Oh-78" value="FK" style="shape=partialRectangle;connectable=0;fillColor=none;top=0;left=0;bottom=0;right=0;editable=1;overflow=hidden;whiteSpace=wrap;html=1;" parent="tiwQBZec2q2PL2vRw0Oh-77" vertex="1">
          <mxGeometry width="30" height="30" as="geometry">
            <mxRectangle width="30" height="30" as="alternateBounds" />
          </mxGeometry>
        </mxCell>
        <mxCell id="tiwQBZec2q2PL2vRw0Oh-79" value="microcontrollerId" style="shape=partialRectangle;connectable=0;fillColor=none;top=0;left=0;bottom=0;right=0;align=left;spacingLeft=6;overflow=hidden;whiteSpace=wrap;html=1;" parent="tiwQBZec2q2PL2vRw0Oh-77" vertex="1">
          <mxGeometry x="30" width="170" height="30" as="geometry">
            <mxRectangle width="170" height="30" as="alternateBounds" />
          </mxGeometry>
        </mxCell>
        <mxCell id="tiwQBZec2q2PL2vRw0Oh-80" value="" style="shape=tableRow;horizontal=0;startSize=0;swimlaneHead=0;swimlaneBody=0;fillColor=none;collapsible=0;dropTarget=0;points=[[0,0.5],[1,0.5]];portConstraint=eastwest;top=0;left=0;right=0;bottom=0;" parent="tiwQBZec2q2PL2vRw0Oh-73" vertex="1">
          <mxGeometry y="90" width="200" height="30" as="geometry" />
        </mxCell>
        <mxCell id="tiwQBZec2q2PL2vRw0Oh-81" value="" style="shape=partialRectangle;connectable=0;fillColor=none;top=0;left=0;bottom=0;right=0;editable=1;overflow=hidden;whiteSpace=wrap;html=1;" parent="tiwQBZec2q2PL2vRw0Oh-80" vertex="1">
          <mxGeometry width="30" height="30" as="geometry">
            <mxRectangle width="30" height="30" as="alternateBounds" />
          </mxGeometry>
        </mxCell>
        <mxCell id="tiwQBZec2q2PL2vRw0Oh-82" value="name" style="shape=partialRectangle;connectable=0;fillColor=none;top=0;left=0;bottom=0;right=0;align=left;spacingLeft=6;overflow=hidden;whiteSpace=wrap;html=1;" parent="tiwQBZec2q2PL2vRw0Oh-80" vertex="1">
          <mxGeometry x="30" width="170" height="30" as="geometry">
            <mxRectangle width="170" height="30" as="alternateBounds" />
          </mxGeometry>
        </mxCell>
        <mxCell id="tiwQBZec2q2PL2vRw0Oh-83" value="" style="shape=tableRow;horizontal=0;startSize=0;swimlaneHead=0;swimlaneBody=0;fillColor=none;collapsible=0;dropTarget=0;points=[[0,0.5],[1,0.5]];portConstraint=eastwest;top=0;left=0;right=0;bottom=0;" parent="tiwQBZec2q2PL2vRw0Oh-73" vertex="1">
          <mxGeometry y="120" width="200" height="30" as="geometry" />
        </mxCell>
        <mxCell id="tiwQBZec2q2PL2vRw0Oh-84" value="" style="shape=partialRectangle;connectable=0;fillColor=none;top=0;left=0;bottom=0;right=0;editable=1;overflow=hidden;whiteSpace=wrap;html=1;" parent="tiwQBZec2q2PL2vRw0Oh-83" vertex="1">
          <mxGeometry width="30" height="30" as="geometry">
            <mxRectangle width="30" height="30" as="alternateBounds" />
          </mxGeometry>
        </mxCell>
        <mxCell id="tiwQBZec2q2PL2vRw0Oh-85" value="type" style="shape=partialRectangle;connectable=0;fillColor=none;top=0;left=0;bottom=0;right=0;align=left;spacingLeft=6;overflow=hidden;whiteSpace=wrap;html=1;" parent="tiwQBZec2q2PL2vRw0Oh-83" vertex="1">
          <mxGeometry x="30" width="170" height="30" as="geometry">
            <mxRectangle width="170" height="30" as="alternateBounds" />
          </mxGeometry>
        </mxCell>
        <mxCell id="tiwQBZec2q2PL2vRw0Oh-86" value="" style="shape=tableRow;horizontal=0;startSize=0;swimlaneHead=0;swimlaneBody=0;fillColor=none;collapsible=0;dropTarget=0;points=[[0,0.5],[1,0.5]];portConstraint=eastwest;top=0;left=0;right=0;bottom=0;" parent="tiwQBZec2q2PL2vRw0Oh-73" vertex="1">
          <mxGeometry y="150" width="200" height="30" as="geometry" />
        </mxCell>
        <mxCell id="tiwQBZec2q2PL2vRw0Oh-87" value="" style="shape=partialRectangle;connectable=0;fillColor=none;top=0;left=0;bottom=0;right=0;editable=1;overflow=hidden;whiteSpace=wrap;html=1;" parent="tiwQBZec2q2PL2vRw0Oh-86" vertex="1">
          <mxGeometry width="30" height="30" as="geometry">
            <mxRectangle width="30" height="30" as="alternateBounds" />
          </mxGeometry>
        </mxCell>
        <mxCell id="tiwQBZec2q2PL2vRw0Oh-88" value="location" style="shape=partialRectangle;connectable=0;fillColor=none;top=0;left=0;bottom=0;right=0;align=left;spacingLeft=6;overflow=hidden;whiteSpace=wrap;html=1;" parent="tiwQBZec2q2PL2vRw0Oh-86" vertex="1">
          <mxGeometry x="30" width="170" height="30" as="geometry">
            <mxRectangle width="170" height="30" as="alternateBounds" />
          </mxGeometry>
        </mxCell>
        <mxCell id="tiwQBZec2q2PL2vRw0Oh-101" style="shape=tableRow;horizontal=0;startSize=0;swimlaneHead=0;swimlaneBody=0;fillColor=none;collapsible=0;dropTarget=0;points=[[0,0.5],[1,0.5]];portConstraint=eastwest;top=0;left=0;right=0;bottom=0;" parent="tiwQBZec2q2PL2vRw0Oh-73" vertex="1">
          <mxGeometry y="180" width="200" height="30" as="geometry" />
        </mxCell>
        <mxCell id="tiwQBZec2q2PL2vRw0Oh-102" style="shape=partialRectangle;connectable=0;fillColor=none;top=0;left=0;bottom=0;right=0;editable=1;overflow=hidden;whiteSpace=wrap;html=1;" parent="tiwQBZec2q2PL2vRw0Oh-101" vertex="1">
          <mxGeometry width="30" height="30" as="geometry">
            <mxRectangle width="30" height="30" as="alternateBounds" />
          </mxGeometry>
        </mxCell>
        <mxCell id="tiwQBZec2q2PL2vRw0Oh-103" value="createdAt" style="shape=partialRectangle;connectable=0;fillColor=none;top=0;left=0;bottom=0;right=0;align=left;spacingLeft=6;overflow=hidden;whiteSpace=wrap;html=1;" parent="tiwQBZec2q2PL2vRw0Oh-101" vertex="1">
          <mxGeometry x="30" width="170" height="30" as="geometry">
            <mxRectangle width="170" height="30" as="alternateBounds" />
          </mxGeometry>
        </mxCell>
        <mxCell id="tiwQBZec2q2PL2vRw0Oh-104" style="shape=tableRow;horizontal=0;startSize=0;swimlaneHead=0;swimlaneBody=0;fillColor=none;collapsible=0;dropTarget=0;points=[[0,0.5],[1,0.5]];portConstraint=eastwest;top=0;left=0;right=0;bottom=0;" parent="tiwQBZec2q2PL2vRw0Oh-73" vertex="1">
          <mxGeometry y="210" width="200" height="30" as="geometry" />
        </mxCell>
        <mxCell id="tiwQBZec2q2PL2vRw0Oh-105" style="shape=partialRectangle;connectable=0;fillColor=none;top=0;left=0;bottom=0;right=0;editable=1;overflow=hidden;whiteSpace=wrap;html=1;" parent="tiwQBZec2q2PL2vRw0Oh-104" vertex="1">
          <mxGeometry width="30" height="30" as="geometry">
            <mxRectangle width="30" height="30" as="alternateBounds" />
          </mxGeometry>
        </mxCell>
        <mxCell id="tiwQBZec2q2PL2vRw0Oh-106" value="updatedAt" style="shape=partialRectangle;connectable=0;fillColor=none;top=0;left=0;bottom=0;right=0;align=left;spacingLeft=6;overflow=hidden;whiteSpace=wrap;html=1;" parent="tiwQBZec2q2PL2vRw0Oh-104" vertex="1">
          <mxGeometry x="30" width="170" height="30" as="geometry">
            <mxRectangle width="170" height="30" as="alternateBounds" />
          </mxGeometry>
        </mxCell>
        <mxCell id="tiwQBZec2q2PL2vRw0Oh-107" value="TEMPERATURE, ..." style="rounded=1;whiteSpace=wrap;html=1;fillColor=#fff2cc;strokeColor=#d6b656;" parent="1" vertex="1">
          <mxGeometry x="712" y="365" width="120" height="20" as="geometry" />
        </mxCell>
        <mxCell id="tiwQBZec2q2PL2vRw0Oh-108" value="Measurement" style="shape=table;startSize=30;container=1;collapsible=1;childLayout=tableLayout;fixedRows=1;rowLines=0;fontStyle=1;align=center;resizeLast=1;html=1;" parent="1" vertex="1">
          <mxGeometry x="880" y="240" width="200" height="150" as="geometry" />
        </mxCell>
        <mxCell id="tiwQBZec2q2PL2vRw0Oh-109" value="" style="shape=tableRow;horizontal=0;startSize=0;swimlaneHead=0;swimlaneBody=0;fillColor=none;collapsible=0;dropTarget=0;points=[[0,0.5],[1,0.5]];portConstraint=eastwest;top=0;left=0;right=0;bottom=1;" parent="tiwQBZec2q2PL2vRw0Oh-108" vertex="1">
          <mxGeometry y="30" width="200" height="30" as="geometry" />
        </mxCell>
        <mxCell id="tiwQBZec2q2PL2vRw0Oh-110" value="PK" style="shape=partialRectangle;connectable=0;fillColor=none;top=0;left=0;bottom=0;right=0;fontStyle=1;overflow=hidden;whiteSpace=wrap;html=1;" parent="tiwQBZec2q2PL2vRw0Oh-109" vertex="1">
          <mxGeometry width="30" height="30" as="geometry">
            <mxRectangle width="30" height="30" as="alternateBounds" />
          </mxGeometry>
        </mxCell>
        <mxCell id="tiwQBZec2q2PL2vRw0Oh-111" value="id" style="shape=partialRectangle;connectable=0;fillColor=none;top=0;left=0;bottom=0;right=0;align=left;spacingLeft=6;fontStyle=5;overflow=hidden;whiteSpace=wrap;html=1;" parent="tiwQBZec2q2PL2vRw0Oh-109" vertex="1">
          <mxGeometry x="30" width="170" height="30" as="geometry">
            <mxRectangle width="170" height="30" as="alternateBounds" />
          </mxGeometry>
        </mxCell>
        <mxCell id="tiwQBZec2q2PL2vRw0Oh-112" style="shape=tableRow;horizontal=0;startSize=0;swimlaneHead=0;swimlaneBody=0;fillColor=none;collapsible=0;dropTarget=0;points=[[0,0.5],[1,0.5]];portConstraint=eastwest;top=0;left=0;right=0;bottom=0;" parent="tiwQBZec2q2PL2vRw0Oh-108" vertex="1">
          <mxGeometry y="60" width="200" height="30" as="geometry" />
        </mxCell>
        <mxCell id="tiwQBZec2q2PL2vRw0Oh-113" value="FK" style="shape=partialRectangle;connectable=0;fillColor=none;top=0;left=0;bottom=0;right=0;editable=1;overflow=hidden;whiteSpace=wrap;html=1;" parent="tiwQBZec2q2PL2vRw0Oh-112" vertex="1">
          <mxGeometry width="30" height="30" as="geometry">
            <mxRectangle width="30" height="30" as="alternateBounds" />
          </mxGeometry>
        </mxCell>
        <mxCell id="tiwQBZec2q2PL2vRw0Oh-114" value="sensorId" style="shape=partialRectangle;connectable=0;fillColor=none;top=0;left=0;bottom=0;right=0;align=left;spacingLeft=6;overflow=hidden;whiteSpace=wrap;html=1;" parent="tiwQBZec2q2PL2vRw0Oh-112" vertex="1">
          <mxGeometry x="30" width="170" height="30" as="geometry">
            <mxRectangle width="170" height="30" as="alternateBounds" />
          </mxGeometry>
        </mxCell>
        <mxCell id="tiwQBZec2q2PL2vRw0Oh-115" value="" style="shape=tableRow;horizontal=0;startSize=0;swimlaneHead=0;swimlaneBody=0;fillColor=none;collapsible=0;dropTarget=0;points=[[0,0.5],[1,0.5]];portConstraint=eastwest;top=0;left=0;right=0;bottom=0;" parent="tiwQBZec2q2PL2vRw0Oh-108" vertex="1">
          <mxGeometry y="90" width="200" height="30" as="geometry" />
        </mxCell>
        <mxCell id="tiwQBZec2q2PL2vRw0Oh-116" value="" style="shape=partialRectangle;connectable=0;fillColor=none;top=0;left=0;bottom=0;right=0;editable=1;overflow=hidden;whiteSpace=wrap;html=1;" parent="tiwQBZec2q2PL2vRw0Oh-115" vertex="1">
          <mxGeometry width="30" height="30" as="geometry">
            <mxRectangle width="30" height="30" as="alternateBounds" />
          </mxGeometry>
        </mxCell>
        <mxCell id="tiwQBZec2q2PL2vRw0Oh-117" value="value" style="shape=partialRectangle;connectable=0;fillColor=none;top=0;left=0;bottom=0;right=0;align=left;spacingLeft=6;overflow=hidden;whiteSpace=wrap;html=1;" parent="tiwQBZec2q2PL2vRw0Oh-115" vertex="1">
          <mxGeometry x="30" width="170" height="30" as="geometry">
            <mxRectangle width="170" height="30" as="alternateBounds" />
          </mxGeometry>
        </mxCell>
        <mxCell id="tiwQBZec2q2PL2vRw0Oh-124" style="shape=tableRow;horizontal=0;startSize=0;swimlaneHead=0;swimlaneBody=0;fillColor=none;collapsible=0;dropTarget=0;points=[[0,0.5],[1,0.5]];portConstraint=eastwest;top=0;left=0;right=0;bottom=0;" parent="tiwQBZec2q2PL2vRw0Oh-108" vertex="1">
          <mxGeometry y="120" width="200" height="30" as="geometry" />
        </mxCell>
        <mxCell id="tiwQBZec2q2PL2vRw0Oh-125" style="shape=partialRectangle;connectable=0;fillColor=none;top=0;left=0;bottom=0;right=0;editable=1;overflow=hidden;whiteSpace=wrap;html=1;" parent="tiwQBZec2q2PL2vRw0Oh-124" vertex="1">
          <mxGeometry width="30" height="30" as="geometry">
            <mxRectangle width="30" height="30" as="alternateBounds" />
          </mxGeometry>
        </mxCell>
        <mxCell id="tiwQBZec2q2PL2vRw0Oh-126" value="createdAt" style="shape=partialRectangle;connectable=0;fillColor=none;top=0;left=0;bottom=0;right=0;align=left;spacingLeft=6;overflow=hidden;whiteSpace=wrap;html=1;" parent="tiwQBZec2q2PL2vRw0Oh-124" vertex="1">
          <mxGeometry x="30" width="170" height="30" as="geometry">
            <mxRectangle width="170" height="30" as="alternateBounds" />
          </mxGeometry>
        </mxCell>
        <mxCell id="tiwQBZec2q2PL2vRw0Oh-130" value="" style="edgeStyle=entityRelationEdgeStyle;fontSize=12;html=1;endArrow=ERoneToMany;rounded=0;" parent="1" source="tiwQBZec2q2PL2vRw0Oh-15" target="tiwQBZec2q2PL2vRw0Oh-70" edge="1">
          <mxGeometry width="100" height="100" relative="1" as="geometry">
            <mxPoint x="180" y="500" as="sourcePoint" />
            <mxPoint x="280" y="400" as="targetPoint" />
          </mxGeometry>
        </mxCell>
        <mxCell id="tiwQBZec2q2PL2vRw0Oh-131" value="" style="edgeStyle=entityRelationEdgeStyle;fontSize=12;html=1;endArrow=ERoneToMany;rounded=0;" parent="1" source="tiwQBZec2q2PL2vRw0Oh-37" target="tiwQBZec2q2PL2vRw0Oh-77" edge="1">
          <mxGeometry width="100" height="100" relative="1" as="geometry">
            <mxPoint x="560" y="460" as="sourcePoint" />
            <mxPoint x="660" y="360" as="targetPoint" />
          </mxGeometry>
        </mxCell>
        <mxCell id="tiwQBZec2q2PL2vRw0Oh-132" value="" style="edgeStyle=entityRelationEdgeStyle;fontSize=12;html=1;endArrow=ERoneToMany;rounded=0;" parent="1" source="tiwQBZec2q2PL2vRw0Oh-74" target="tiwQBZec2q2PL2vRw0Oh-112" edge="1">
          <mxGeometry width="100" height="100" relative="1" as="geometry">
            <mxPoint x="890" y="300" as="sourcePoint" />
            <mxPoint x="970" y="300" as="targetPoint" />
          </mxGeometry>
        </mxCell>
      </root>
    </mxGraphModel>
  </diagram>
</mxfile>
